{
  "accessors": [
    {
      "bufferView": 2,
      "componentType": 5126,
      "count": 610,
      "max": [
        0.9999997019767761,
        0.8694236874580383,
        0.9999994039535522
      ],
      "min": [
        -0.9999990463256836,
        -1.0,
        -0.9999987483024597
      ],
      "type": "VEC3"
    },
    {
      "bufferView": 2,
      "byteOffset": 7320,
      "componentType": 5126,
      "count": 610,
      "max": [
        1.0,
        1.0,
        1.0
      ],
      "min": [
        -1.0,
        -1.0,
        -1.0
      ],
      "type": "VEC3"
    },
    {
      "bufferView": 3,
      "componentType": 5126,
      "count": 610,
      "max": [
        0.8041472434997559,
        0.9986575841903687,
        0.09253332763910294,
        1.0
      ],
      "min": [
        -0.932891309261322,
        -0.9986575841903687,
        -0.9986377358436584,
        1.0
      ],
      "type": "VEC4"
    },
    {
      "bufferView": 1,
      "componentType": 5126,
      "count": 610,
      "max": [
        0.9998820424079895,
        0.982191801071167
      ],
      "min": [
        0.00011796060425695032,
        0.00011796060425695032
      ],
      "type": "VEC2"
    },
    {
      "bufferView": 1,
      "byteOffset": 4880,
      "componentType": 5126,
      "count": 610,
      "max": [
        0.9998820424079895,
        0.982191801071167
      ],
      "min": [
        0.00011796060425695032,
        0.00011796060425695032
      ],
      "type": "VEC2"
    },
    {
      "bufferView": 1,
      "byteOffset": 9760,
      "componentType": 5126,
      "count": 610,
      "max": [
        0.9998820424079895,
        0.982191801071167
      ],
      "min": [
        0.00011796060425695032,
        0.00011796060425695032
      ],
      "type": "VEC2"
    },
    {
      "bufferView": 1,
      "byteOffset": 14640,
      "componentType": 5126,
      "count": 610,
      "max": [
        0.9998820424079895,
        0.982191801071167
      ],
      "min": [
        0.00011796060425695032,
        0.00011796060425695032
      ],
      "type": "VEC2"
    },
    {
      "bufferView": 2,
      "byteOffset": 14640,
      "componentType": 5126,
      "count": 610,
      "max": [
        0.11969612538814545,
        0.004230380058288574,
        0.11969614028930664
      ],
      "min": [
        -0.11969611048698425,
        -0.013051867485046387,
        -0.11969618499279022
      ],
      "type": "VEC3"
    },
    {
      "bufferView": 2,
      "byteOffset": 21960,
      "componentType": 5126,
      "count": 610,
      "max": [
        0.22644484043121338,
        0.0,
        0.22644484043121338
      ],
      "min": [
        -0.22644484043121338,
        -0.09498000144958496,
        -0.22644484043121338
      ],
      "type": "VEC3"
    },
    {
      "bufferView": 2,
      "byteOffset": 29280,
      "componentType": 5126,
      "count": 610,
      "max": [
        0.003925919532775879,
        0.238567054271698,
        0.018154442310333252
      ],
      "min": [
        -0.06672316789627075,
        -0.2385670691728592,
        -0.05192476511001587
      ],
      "type": "VEC3"
    },
    {
      "bufferView": 0,
      "componentType": 5125,
      "count": 3264,
      "type": "SCALAR"
    },
    {
      "bufferView": 2,
      "byteOffset": 36600,
      "componentType": 5126,
      "count": 3094,
      "max": [
        0.9872311353683472,
        1.2001874446868896,
        0.9872307777404785
      ],
      "min": [
        -0.9872304201126099,
        -0.9975767135620117,
        -0.9872304797172546
      ],
      "type": "VEC3"
    },
    {
      "bufferView": 2,
      "byteOffset": 73728,
      "componentType": 5126,
      "count": 3094,
      "max": [
        1.0,
        1.0,
        1.0
      ],
      "min": [
        -1.0,
        -1.0,
        -1.0
      ],
      "type": "VEC3"
    },
    {
      "bufferView": 1,
      "byteOffset": 19520,
      "componentType": 5126,
      "count": 3094,
      "max": [
        0.7434871792793274,
        0.9998756051063538
      ],
      "min": [
        0.00012443351442925632,
        0.00012443351442925632
      ],
      "type": "VEC2"
    },
    {
      "bufferView": 0,
      "byteOffset": 13056,
      "componentType": 5125,
      "count": 12672,
      "type": "SCALAR"
    },
    {
      "bufferView": 4,
      "componentType": 5126,
      "count": 37,
      "max": [
        1.5416666269302368
      ],
      "min": [
        0.0416666679084301
      ],
      "type": "SCALAR"
    },
    {
      "bufferView": 6,
      "componentType": 5126,
      "count": 37,
      "max": [
        0.7175047993659973,
        0.0247507281601429,
        0.22015385329723358,
        0.7578199505805969
      ],
      "min": [
        0.5334607362747192,
        -0.31154459714889526,
        -0.025528470054268837,
        0.6956453919410706
      ],
      "type": "VEC4"
    },
    {
      "bufferView": 4,
      "byteOffset": 148,
      "componentType": 5126,
      "count": 34,
      "max": [
        1.5416666269302368
      ],
      "min": [
        0.0416666679084301
      ],
      "type": "SCALAR"
    },
    {
      "bufferView": 5,
      "componentType": 5126,
      "count": 34,
      "max": [
        2.3829312324523926,
        2.3829312324523926,
        2.3829312324523926
      ],
      "min": [
        2.3829307556152344,
        2.3829307556152344,
        2.3829307556152344
      ],
      "type": "VEC3"
    },
    {
      "bufferView": 4,
      "byteOffset": 284,
      "componentType": 5126,
      "count": 37,
      "max": [
        1.5416666269302368
      ],
      "min": [
        0.0416666679084301
      ],
      "type": "SCALAR"
    },
    {
      "bufferView": 6,
      "byteOffset": 592,
      "componentType": 5126,
      "count": 37,
      "max": [
        0.7175047993659973,
        0.0247507281601429,
        0.22015385329723358,
        0.7578200697898865
      ],
      "min": [
        0.5334606766700745,
        -0.3115445375442505,
        -0.025528470054268837,
        0.6956453919410706
      ],
      "type": "VEC4"
    },
    {
      "bufferView": 4,
      "byteOffset": 432,
      "componentType": 5126,
      "count": 19,
      "max": [
        1.5416666269302368
      ],
      "min": [
        0.0416666679084301
      ],
      "type": "SCALAR"
    },
    {
      "bufferView": 5,
      "byteOffset": 408,
      "componentType": 5126,
      "count": 19,
      "max": [
        2.412344455718994,
        2.412344455718994,
        2.412344455718994
      ],
      "min": [
        2.412344217300415,
        2.412343978881836,
        2.412344217300415
      ],
      "type": "VEC3"
    },
    {
      "bufferView": 4,
      "byteOffset": 508,
      "componentType": 5126,
      "count": 37,
      "max": [
        1.5416666269302368
      ],
      "min": [
        0.0416666679084301
      ],
      "type": "SCALAR"
    },
    {
      "bufferView": 4,
      "byteOffset": 656,
      "componentType": 5126,
      "count": 37,
      "max": [
        1.0
      ],
      "min": [
        0.0
      ],
      "type": "SCALAR"
    }
  ],
  "animations": [
    {
      "channels": [
        {
          "sampler": 0,
          "target": {
            "node": 3,
            "path": "rotation"
          }
        },
        {
          "sampler": 1,
          "target": {
            "node": 3,
            "path": "scale"
          }
        },
        {
          "sampler": 2,
          "target": {
            "node": 5,
            "path": "rotation"
          }
        },
        {
          "sampler": 3,
          "target": {
            "node": 5,
            "path": "scale"
          }
        },
        {
          "sampler": 4,
          "target": {
            "node": 4,
            "path": "weights"
          }
        }
      ],
      "name": "Animation",
      "samplers": [
        {
          "input": 15,
          "interpolation": "LINEAR",
          "output": 16
        },
        {
          "input": 17,
          "interpolation": "LINEAR",
          "output": 18
        },
        {
          "input": 19,
          "interpolation": "LINEAR",
          "output": 20
        },
        {
          "input": 21,
          "interpolation": "LINEAR",
          "output": 22
        },
        {
          "input": 23,
          "interpolation": "LINEAR",
          "output": 24
        }
      ]
    }
  ],
  "asset": {
    "extras": {
      "author": "MisterH (https://sketchfab.com/TGVMisterH)",
      "license": "CC-BY-4.0 (http://creativecommons.org/licenses/by/4.0/)",
      "source": "https://sketchfab.com/3d-models/realistic-human-eye-f2370371544c4b029123da0b7d7e2457",
      "title": "Realistic human eye"
    },
    "generator": "Sketchfab-12.68.0",
    "version": "2.0"
  },
  "bufferViews": [
    {
      "buffer": 0,
      "byteLength": 63744,
      "name": "floatBufferViews",
      "target": 34963
    },
    {
      "buffer": 0,
      "byteLength": 44272,
      "byteOffset": 63744,
      "byteStride": 8,
      "name": "floatBufferViews",
      "target": 34962
    },
    {
      "buffer": 0,
      "byteLength": 110856,
      "byteOffset": 108016,
      "byteStride": 12,
      "name": "floatBufferViews",
      "target": 34962
    },
    {
      "buffer": 0,
      "byteLength": 9760,
      "byteOffset": 218872,
      "byteStride": 16,
      "name": "floatBufferViews",
      "target": 34962
    },
    {
      "buffer": 0,
      "byteLength": 804,
      "byteOffset": 228632,
      "name": "floatBufferViews"
    },
    {
      "buffer": 0,
      "byteLength": 636,
      "byteOffset": 229436,
      "byteStride": 12,
      "name": "floatBufferViews"
    },
    {
      "buffer": 0,
      "byteLength": 1184,
      "byteOffset": 230072,
      "byteStride": 16,
      "name": "floatBufferViews"
    }
  ],
  "buffers": [
    {
      "byteLength": 231256,
      "uri": "scene.bin"
    }
  ],
  "extensionsUsed": [
    "KHR_materials_transmission"
  ],
  "images": [
    {
      "uri": "textures/Eye_Ball_Baked_baseColor.png"
    },
    {
      "uri": "textures/Eye_Ball_Baked_metallicRoughness.png"
    },
    {
      "uri": "textures/Eye_Ball_Baked_normal.png"
    }
  ],
  "materials": [
    {
      "doubleSided": true,
      "name": "Eye_Ball_Baked",
      "normalTexture": {
        "index": 2,
        "texCoord": 2
      },
      "pbrMetallicRoughness": {
        "baseColorTexture": {
          "index": 0
        },
        "metallicRoughnessTexture": {
          "index": 1,
          "texCoord": 1
        }
      }
    },
    {
      "alphaMode": "BLEND",
      "doubleSided": true,
      "extensions": {
        "KHR_materials_transmission": {
          "transmissionFactor": 1.0
        }
      },
      "name": "Cornea_Baked",
      "pbrMetallicRoughness": {
        "baseColorFactor": [
          1.0,
          1.0,
          1.0,
          0.25
        ],
        "metallicFactor": 0.0,
        "roughnessFactor": 0.0
      }
    }
  ],
  "meshes": [
    {
      "name": "mesh_0",
      "primitives": [
        {
          "attributes": {
            "NORMAL": 1,
            "POSITION": 0,
            "TANGENT": 2,
            "TEXCOORD_0": 3,
            "TEXCOORD_1": 4,
            "TEXCOORD_2": 5,
            "TEXCOORD_3": 6
          },
          "indices": 10,
          "material": 0,
          "mode": 4,
          "targets": [
            {
              "NORMAL": 8,
              "POSITION": 7,
              "TANGENT": 9
            }
          ]
        }
      ],
      "weights": [
        0.0
      ]
    },
    {
      "name": "Object_1",
      "primitives": [
        {
          "attributes": {
            "NORMAL": 12,
            "POSITION": 11,
            "TEXCOORD_0": 13
          },
          "indices": 14,
          "material": 1,
          "mode": 4
        }
      ]
    }
  ],
  "nodes": [
    {
      "children": [
        1
      ],
      "matrix": [
        1.0,
        0.0,
        0.0,
        0.0,
        0.0,
        2.220446049250313e-16,
        -1.0,
        0.0,
        0.0,
        1.0,
        2.220446049250313e-16,
        0.0,
        0.0,
        0.0,
        0.0,
        1.0
      ],
      "name": "Sketchfab_model"
    },
    {
      "children": [
        2
      ],
      "name": "root"
    },
    {
      "children": [
        3,
        5
      ],
      "matrix": [
        1.0,
        0.0,
        0.0,
        0.0,
        0.0,
        2.220446049250313e-16,
        1.0,
        0.0,
        0.0,
        -1.0,
        2.220446049250313e-16,
        0.0,
        0.0,
        0.0,
        0.0,
        1.0
      ],
      "name": "GLTF_SceneRootNode"
    },
    {
      "children": [
        4
      ],
      "name": "Eye_Baked_2",
      "rotation": [
        0.7071068286895752,
        0.0,
        0.0,
        0.7071068286895752
      ],
      "scale": [
        2.3829309940338135,
        2.3829309940338135,
        2.3829309940338135
      ]
    },
    {
      "mesh": 0,
      "name": "mesh_0"
    },
    {
      "children": [
        6
      ],
      "name": "Cornea_3",
      "rotation": [
        0.6805992126464844,
        -0.057022109627723694,
        0.05327362194657326,
        0.7284882664680481
      ],
      "scale": [
        2.412344217300415,
        2.412344455718994,
        2.412344217300415
      ]
    },
    {
      "mesh": 1,
      "name": "Object_6"
    }
  ],
  "samplers": [
    {
      "magFilter": 9729,
      "minFilter": 9987,
      "wrapS": 10497,
      "wrapT": 10497
    }
  ],
  "scene": 0,
  "scenes": [
    {
      "name": "Sketchfab_Scene",
      "nodes": [
        0
      ]
    }
  ],
  "textures": [
    {
      "sampler": 0,
      "source": 0
    },
    {
      "sampler": 0,
      "source": 1
    },
    {
      "sampler": 0,
      "source": 2
    }
  ]
}
